<svg id="圖層_1" data-name="圖層 1" xmlns="http://www.w3.org/2000/svg" xmlns:xlink="http://www.w3.org/1999/xlink" viewBox="0 0 60 60"><defs><style>.cls-1{fill:url(#linear-gradient);}.cls-2{fill:url(#linear-gradient-2);}</style><linearGradient id="linear-gradient" x1="-9.16" y1="1.77" x2="45.8" y2="78.55" gradientUnits="userSpaceOnUse"><stop offset="0" stop-color="#4fc9b6"/><stop offset="0.6" stop-color="#44c3ce"/><stop offset="1" stop-color="#009dd7"/></linearGradient><linearGradient id="linear-gradient-2" x1="1.12" y1="-5.55" x2="56.06" y2="71.18" xlink:href="#linear-gradient"/></defs><title>工作區域 1</title><path class="cls-1" d="M24.49,46.21a4,4,0,0,0-5.58-5.55,3.09,3.09,0,0,0-1.21,1.22,4,4,0,0,0,5.58,5.55A3,3,0,0,0,24.49,46.21Z"/><path class="cls-2" d="M5.25,52.39a3.61,3.61,0,0,1-2.69-6L27.09,19a3.61,3.61,0,0,1,6.31,2.41V44.94c10.93-1.29,19.3-8.28,19.3-16.69,0-9.31-10.28-16.9-22.92-16.9-11.24,0-21,6.2-22.67,14.4A3.62,3.62,0,1,1,0,24.3C2.41,12.6,14.92,4.11,29.78,4.11c16.63,0,30.16,10.83,30.16,24.14S46.41,52.39,29.78,52.39a3.62,3.62,0,0,1-3.62-3.62V30.88L8,51.19A3.62,3.62,0,0,1,5.25,52.39Z"/></svg>